<svg aria-hidden="true" style="position: absolute; width: 0; height: 0; overflow: hidden;" version="1.1" xmlns="http://www.w3.org/2000/svg" xmlns:xlink="http://www.w3.org/1999/xlink">
<defs>
<symbol id="icon-heart" viewBox="0 0 32 32">
<path d="M29.193 5.265c-3.629-3.596-9.432-3.671-13.191-0.288-3.76-3.383-9.561-3.308-13.192 0.288-3.741 3.704-3.741 9.709 0 13.415 1.069 1.059 11.053 10.941 11.053 10.941 1.183 1.172 3.096 1.172 4.278 0 0 0 10.932-10.822 11.053-10.941 3.742-3.706 3.742-9.711-0.001-13.415zM27.768 17.268l-11.053 10.941c-0.393 0.391-1.034 0.391-1.425 0l-11.053-10.941c-2.95-2.92-2.95-7.671 0-10.591 2.844-2.815 7.416-2.914 10.409-0.222l1.356 1.22 1.355-1.22c2.994-2.692 7.566-2.594 10.41 0.222 2.95 2.919 2.95 7.67 0.001 10.591zM9.253 7.501c0.277 0 0.5 0.224 0.5 0.5s-0.224 0.5-0.5 0.5h-0.001c-1.794 0-3.249 1.455-3.249 3.249v0.001c0 0.276-0.224 0.5-0.5 0.5s-0.5-0.224-0.5-0.5v0c0-2.346 1.901-4.247 4.246-4.249 0.002 0 0.002-0.001 0.004-0.001z"></path>
</symbol>
<symbol id="icon-checkmark-outline" viewBox="0 0 20 20">
<path d="M2.93 17.070c-1.884-1.821-3.053-4.37-3.053-7.193 0-5.523 4.477-10 10-10 2.823 0 5.372 1.169 7.19 3.050l0.003 0.003c1.737 1.796 2.807 4.247 2.807 6.947 0 5.523-4.477 10-10 10-2.7 0-5.151-1.070-6.95-2.81l0.003 0.003zM15.66 15.66c1.449-1.449 2.344-3.45 2.344-5.66 0-4.421-3.584-8.004-8.004-8.004-2.21 0-4.211 0.896-5.66 2.344v0c-1.449 1.449-2.344 3.45-2.344 5.66 0 4.421 3.584 8.004 8.004 8.004 2.21 0 4.211-0.896 5.66-2.344v0zM6.7 9.29l2.3 2.31 4.3-4.3 1.4 1.42-5.7 5.68-3.7-3.7 1.4-1.42z"></path>
</symbol>
<symbol id="icon-list-bullet" viewBox="0 0 20 20">
<path d="M1 4h2v2h-2v-2zM5 4h14v2h-14v-2zM1 9h2v2h-2v-2zM5 9h14v2h-14v-2zM1 14h2v2h-2v-2zM5 14h14v2h-14v-2z"></path>
</symbol>
<symbol id="icon-location" viewBox="0 0 20 20">
<path d="M10 20s-7-9.13-7-13c0-3.866 3.134-7 7-7s7 3.134 7 7v0c0 3.87-7 13-7 13zM10 9c1.105 0 2-0.895 2-2s-0.895-2-2-2v0c-1.105 0-2 0.895-2 2s0.895 2 2 2v0z"></path>
</symbol>
<symbol id="icon-location-food" viewBox="0 0 20 20">
<path d="M18 11v7c0 1.105-0.895 2-2 2s-2-0.895-2-2v0-5h-2v-10c0-1.657 1.343-3 3-3v0h3v11zM4 10c-1.105 0-2-0.895-2-2v0-7c0-0.552 0.448-1 1-1s1 0.448 1 1v0 4h1v-4c0-0.552 0.448-1 1-1s1 0.448 1 1v0 4h1v-4c0-0.552 0.448-1 1-1s1 0.448 1 1v0 7c0 1.105-0.895 2-2 2v0 8c0 1.105-0.895 2-2 2s-2-0.895-2-2v0-8z"></path>
</symbol>
<symbol id="icon-store-front" viewBox="0 0 20 20">
<path d="M18 9.87v10.13h-16v-10.13c0.301 0.076 0.646 0.12 1.001 0.12 0.732 0 1.42-0.185 2.022-0.511l-0.022 0.011v4.51h10v-4.5c0.576 0.31 1.261 0.492 1.988 0.492 0.359 0 0.708-0.045 1.042-0.128l-0.029 0.006zM3 0h4l-0.67 6.030c-0.231 1.663-1.627 2.935-3.326 2.97l-0.004 0c-1.66 0-2.58-1.27-2.050-2.85l2.050-6.15zM8 0h4l0.7 6.3c0.17 1.5-0.91 2.7-2.42 2.7h-0.56c-0.018 0.001-0.040 0.001-0.062 0.001-1.314 0-2.38-1.066-2.38-2.38 0-0.113 0.008-0.224 0.023-0.333l-0.001 0.013 0.7-6.3zM13 0h4l2.050 6.15c0.53 1.58-0.4 2.85-2.050 2.85-1.705-0.031-3.103-1.305-3.328-2.952l-0.002-0.018-0.67-6.030z"></path>
</symbol>
<symbol id="icon-tablet" viewBox="0 0 20 20">
<path d="M2 2c0-1.1 0.9-2 2-2h12c1.105 0 2 0.895 2 2v0 16c0 1.105-0.895 2-2 2v0h-12c-1.105 0-2-0.895-2-2v0-16zM4 2v14h12v-14h-12zM10 19c0.552 0 1-0.448 1-1s-0.448-1-1-1v0c-0.552 0-1 0.448-1 1s0.448 1 1 1v0z"></path>
</symbol>
<symbol id="icon-user-add" viewBox="0 0 20 20">
<path d="M2 6h-2v2h2v2h2v-2h2v-2h-2v-2h-2v2zM9 6c0-1.657 1.343-3 3-3s3 1.343 3 3v0 2c0 1.657-1.343 3-3 3s-3-1.343-3-3v0-2zM20 15.14c-2.287-1.345-5.038-2.14-7.975-2.14-0.009 0-0.018 0-0.026 0h0.001c-2.91 0-5.65 0.78-8 2.14v2.86h16v-2.86z"></path>
</symbol>
</defs>
</svg>
